<?xml version="1.0" standalone="no"?>
<!DOCTYPE svg PUBLIC "-//W3C//DTD SVG 20010904//EN"
 "http://www.w3.org/TR/2001/REC-SVG-20010904/DTD/svg10.dtd">
<svg version="1.0" xmlns="http://www.w3.org/2000/svg"
 width="368.000000pt" height="368.000000pt" viewBox="0 0 368.000000 368.000000"
 preserveAspectRatio="xMidYMid meet">
<metadata>
Created by potrace 1.11, written by Peter Selinger 2001-2013
</metadata>
<g transform="translate(0.000000,368.000000) scale(0.100000,-0.100000)"
fill="#000000" stroke="none">
<path d="M1708 3308 c-2 -7 -4 -55 -3 -107 0 -76 3 -96 17 -104 33 -22 44 5
42 105 -2 124 -1 118 -28 118 -13 0 -26 -6 -28 -12z"/>
<path d="M1274 3155 c-4 -10 14 -47 50 -101 46 -69 61 -85 79 -82 36 5 30 31
-26 114 -55 80 -90 104 -103 69z"/>
<path d="M2086 3093 c-60 -83 -71 -123 -35 -123 24 0 25 2 95 102 39 57 45 70
34 83 -22 26 -36 17 -94 -62z"/>
<path d="M1655 2965 c-318 -75 -446 -407 -269 -701 19 -32 70 -106 114 -164
94 -126 142 -207 191 -320 37 -86 54 -105 66 -73 3 10 27 64 53 119 46 99 89
167 196 309 146 195 191 333 158 491 -40 194 -200 334 -393 343 -30 1 -57 3
-60 5 -3 1 -28 -3 -56 -9z m152 -280 c91 -36 125 -164 65 -244 -52 -70 -160
-88 -226 -38 -82 63 -92 165 -23 249 35 44 119 59 184 33z"/>
<path d="M2245 1890 c-16 -3 -41 -12 -55 -19 -14 -7 -163 -150 -331 -318
l-307 -306 -12 39 c-24 74 -89 199 -125 241 -71 83 -171 79 -228 -9 -26 -41
-31 -62 -27 -123 1 -25 220 -599 268 -705 54 -119 154 -232 239 -271 181 -84
442 -37 586 105 138 136 258 267 267 291 28 73 0 158 -64 196 -32 19 -34 24
-33 67 2 62 -24 112 -73 143 -37 23 -38 26 -33 66 5 41 -19 132 -35 133 -4 1
-19 11 -34 23 l-28 23 90 92 c92 95 110 128 110 203 0 84 -89 150 -175 129z
m81 -105 c35 -53 21 -72 -257 -345 -169 -166 -264 -267 -273 -290 -41 -102 27
-206 145 -219 4 -1 10 -17 13 -37 7 -36 65 -109 88 -112 55 -7 75 -15 72 -30
-6 -29 29 -86 69 -111 l37 -25 -31 -32 c-17 -17 -53 -44 -80 -58 -200 -110
-428 -71 -537 91 -50 76 -66 110 -189 423 -133 337 -141 359 -136 395 4 31 35
65 60 65 37 0 95 -97 153 -255 33 -89 50 -115 78 -115 8 0 159 145 336 321
176 177 335 330 351 340 43 27 81 24 101 -6z m-112 -427 c34 -48 23 -69 -96
-188 -166 -166 -177 -172 -223 -125 -45 44 -36 62 107 204 115 114 136 131
164 131 23 0 38 -7 48 -22z m106 -218 c25 -25 26 -71 3 -97 -53 -58 -191 -182
-209 -187 -15 -5 -31 1 -52 19 -52 43 -39 73 76 188 83 81 104 97 130 97 19 0
40 -8 52 -20z m111 -222 c13 -17 15 -30 10 -69 -1 -3 -33 -38 -72 -78 -78 -77
-99 -85 -143 -50 -46 36 -36 66 54 153 71 70 83 77 107 71 16 -3 35 -15 44
-27z"/>
</g>
</svg>
